<?xml version="1.0" standalone="no"?>
<!DOCTYPE svg PUBLIC "-//W3C//DTD SVG 20010904//EN"
 "http://www.w3.org/TR/2001/REC-SVG-20010904/DTD/svg10.dtd">
<svg version="1.0" xmlns="http://www.w3.org/2000/svg"
 width="1563.000000pt" height="1563.000000pt" viewBox="0 0 1563.000000 1563.000000"
 preserveAspectRatio="xMidYMid meet">
<metadata>
Created by potrace 1.14, written by Peter Selinger 2001-2017
</metadata>
<g transform="translate(0.000000,1563.000000) scale(0.100000,-0.100000)"
fill="#000000" stroke="none">
<path d="M9358 13528 c-103 -144 -243 -353 -328 -488 -29 -47 -64 -102 -77
-123 -60 -95 -187 -326 -268 -485 -218 -432 -364 -842 -436 -1227 -5 -27 -11
-61 -14 -75 -3 -14 -8 -45 -11 -70 -3 -25 -7 -52 -9 -60 -18 -69 -26 -478 -11
-610 21 -195 61 -378 120 -545 135 -383 390 -737 725 -1008 11 -9 22 -17 24
-17 1 0 3 87 3 193 1 173 9 428 19 547 2 25 6 90 10 145 4 55 8 116 10 135 2
19 6 67 10 105 3 39 7 81 10 95 2 14 6 57 10 95 4 39 9 81 10 95 2 14 6 52 9
85 4 33 8 71 11 85 3 14 7 48 10 75 4 28 8 57 10 65 2 8 7 38 10 65 3 28 7 59
9 70 2 11 8 45 12 75 4 30 9 57 9 60 1 3 5 28 9 55 8 51 63 373 71 410 2 11
11 56 20 100 9 44 18 94 20 110 3 17 25 125 51 240 25 116 46 216 47 223 1 29
15 -8 31 -83 26 -122 94 -456 101 -495 3 -19 12 -66 20 -105 7 -38 16 -88 19
-110 4 -22 10 -62 16 -90 14 -77 29 -166 35 -210 3 -22 7 -47 10 -55 2 -8 6
-37 10 -65 8 -64 24 -174 29 -200 2 -11 7 -47 10 -80 4 -33 9 -71 11 -85 2
-14 6 -50 10 -81 3 -31 7 -65 9 -75 2 -11 7 -55 10 -99 4 -44 9 -91 11 -105 2
-14 7 -56 10 -95 3 -38 7 -88 10 -110 16 -137 33 -533 36 -803 l1 -182 52 42
c63 53 236 224 298 297 277 321 466 762 513 1196 13 120 15 168 15 290 -1 189
-16 363 -45 515 -2 14 -7 36 -9 50 -2 14 -12 59 -21 100 -9 41 -18 82 -20 90
-3 14 -11 45 -50 186 -16 59 -120 354 -140 399 -7 17 -32 75 -55 130 -95 226
-261 546 -407 784 -34 57 -63 105 -63 108 0 10 -302 458 -311 461 -5 2 -9 8
-9 13 0 9 -76 117 -91 129 -3 3 -11 15 -18 28 -6 12 -15 22 -20 22 -4 0 -51
-60 -103 -132z"/>
<path d="M14577 10964 c-1 -1 -67 -5 -147 -8 -80 -4 -161 -9 -180 -11 -19 -2
-78 -6 -130 -10 -52 -3 -102 -8 -110 -10 -8 -2 -44 -6 -80 -10 -297 -27 -767
-120 -1045 -207 -55 -17 -106 -33 -112 -34 -17 -3 -139 -48 -229 -85 -471
-190 -870 -463 -1130 -773 -27 -32 -54 -64 -60 -70 -30 -31 -170 -251 -214
-337 -82 -160 -168 -389 -194 -519 -3 -14 -12 -56 -20 -95 -32 -152 -52 -380
-33 -368 5 3 92 65 193 137 170 122 386 265 571 379 43 26 85 51 93 57 95 59
492 281 700 392 251 134 848 421 1080 520 52 22 99 44 105 49 5 5 13 9 18 9
11 0 -12 -28 -99 -126 -219 -245 -443 -482 -704 -744 -138 -137 -229 -225
-470 -450 -52 -49 -286 -255 -345 -304 -38 -32 -81 -67 -94 -78 -154 -130
-423 -337 -556 -428 l-49 -34 29 -8 c68 -18 253 -57 300 -62 143 -17 191 -20
315 -20 199 0 304 12 495 55 365 81 729 272 1045 547 74 64 271 260 320 318
461 543 823 1226 1126 2128 35 104 64 193 64 198 0 7 -445 9 -453 2z"/>
<path d="M5358 10335 c-1 -1 -46 -6 -99 -9 -52 -4 -106 -9 -120 -11 -13 -2
-55 -6 -94 -10 -64 -5 -183 -19 -260 -30 -16 -2 -84 -14 -150 -25 -66 -12
-133 -23 -150 -26 -191 -31 -843 -189 -862 -208 -5 -5 76 -127 225 -341 321
-457 680 -876 998 -1161 43 -38 82 -74 88 -79 42 -39 197 -164 276 -222 98
-72 276 -193 284 -193 2 0 35 -19 72 -42 80 -48 297 -153 399 -192 39 -15 79
-31 90 -36 52 -22 271 -82 345 -94 19 -3 46 -8 60 -10 198 -36 509 -41 695
-11 38 6 94 16 120 21 78 14 270 70 347 100 109 42 306 136 361 172 l38 25
-88 34 c-205 78 -250 96 -290 114 -24 10 -45 19 -48 19 -3 0 -24 8 -48 19 -23
10 -116 51 -207 91 -293 129 -854 415 -1145 583 -66 38 -140 81 -165 95 -250
141 -840 512 -815 512 6 0 37 -4 70 -10 33 -5 80 -12 105 -15 25 -3 52 -8 60
-10 8 -2 35 -7 60 -10 25 -3 56 -7 70 -9 14 -3 43 -7 65 -10 22 -4 76 -13 120
-21 44 -8 91 -16 105 -19 14 -2 54 -10 90 -16 36 -7 74 -14 85 -16 17 -2 76
-13 210 -39 89 -17 191 -39 280 -60 55 -13 125 -28 155 -34 30 -6 120 -26 200
-46 80 -20 152 -38 160 -40 243 -59 739 -212 1020 -315 191 -69 220 -79 220
-74 0 20 -83 222 -135 329 -141 288 -341 543 -587 748 -135 112 -399 270 -573
342 -234 97 -529 176 -755 201 -19 2 -44 6 -55 9 -11 2 -49 7 -85 10 -36 4
-78 9 -95 12 -34 5 -641 13 -647 8z"/>
<path d="M1055 8290 c-4 -41 -9 -84 -11 -94 -24 -130 -23 -707 2 -921 36 -308
81 -543 154 -800 180 -633 471 -1205 912 -1797 67 -89 124 -165 127 -168 3 -3
40 -45 80 -95 244 -294 561 -617 871 -885 41 -36 77 -67 80 -70 3 -3 30 -25
60 -50 30 -25 57 -47 60 -50 14 -16 292 -228 415 -317 228 -164 556 -373 586
-373 8 0 34 33 58 73 134 220 499 747 756 1092 121 162 477 620 495 635 3 3
37 43 75 90 68 83 100 121 120 144 6 6 37 43 70 81 236 276 373 423 705 755
239 240 304 302 451 435 67 61 259 227 295 255 17 14 87 70 155 126 122 99
405 312 464 350 17 10 32 21 35 24 26 27 402 263 565 354 66 37 127 71 135 76
108 64 432 216 617 291 149 60 414 149 543 183 125 32 323 76 369 81 20 3 54
7 76 10 73 11 89 13 175 21 47 4 129 8 182 8 106 1 108 8 8 25 -36 6 -74 13
-85 15 -52 10 -208 33 -278 41 -213 24 -311 30 -557 30 -218 0 -364 -7 -440
-19 -31 -5 -100 -14 -165 -22 -27 -3 -69 -9 -93 -15 -23 -5 -59 -12 -80 -15
-79 -12 -393 -95 -502 -133 -530 -181 -1018 -444 -1605 -864 -133 -96 -433
-318 -465 -344 -34 -29 -502 -386 -715 -547 -258 -194 -405 -299 -610 -436
-220 -147 -278 -183 -475 -295 -167 -95 -488 -253 -615 -303 -73 -28 -180 -60
-230 -67 -95 -14 -133 -17 -225 -17 -441 1 -895 296 -1307 849 -190 255 -329
484 -503 828 -140 277 -178 360 -285 620 -175 427 -310 814 -439 1270 -2 6 -7
-24 -11 -65z"/>
<path d="M3697 8144 c-1 -1 -38 -4 -82 -7 -419 -30 -837 -302 -1046 -682 -113
-206 -160 -385 -162 -625 -2 -171 5 -237 38 -363 86 -330 287 -607 570 -789
316 -204 690 -264 1060 -172 437 109 803 452 944 883 86 263 84 572 -6 841
-46 138 -155 334 -238 430 -235 270 -537 434 -880 476 -52 6 -193 12 -198 8z"/>
<path d="M10818 7275 c-2 -2 -50 -5 -108 -8 -131 -7 -294 -31 -427 -63 -162
-39 -157 -34 -82 -84 158 -107 643 -468 669 -499 3 -3 28 -24 55 -46 45 -35
393 -331 405 -345 3 -3 28 -25 55 -50 182 -163 316 -291 590 -565 292 -291
537 -546 532 -552 -3 -2 -302 119 -372 151 -40 18 -88 40 -290 129 -250 110
-709 333 -960 467 -134 71 -209 113 -220 120 -5 4 -41 25 -80 45 -146 80 -422
250 -637 392 -123 81 -229 152 -237 157 -14 9 -14 13 5 -159 24 -221 113 -513
226 -740 329 -658 1012 -1134 1952 -1361 123 -29 111 -27 266 -55 122 -22 122
-22 215 -38 111 -19 348 -45 510 -57 44 -3 103 -8 130 -10 100 -9 883 -15 888
-7 3 5 -7 42 -23 83 -15 41 -42 113 -59 160 -18 47 -36 94 -40 105 -5 11 -15
36 -22 55 -109 298 -342 791 -507 1071 -233 397 -431 659 -701 929 -250 249
-461 405 -739 544 -113 57 -360 149 -435 161 -18 3 -49 10 -70 16 -21 6 -55
12 -75 15 -20 2 -50 7 -67 11 -40 9 -51 10 -180 18 -60 4 -122 8 -137 10 -15
1 -29 1 -30 0z"/>
</g>
</svg>
